<svg width="11" height="19" viewBox="0 0 11 19" fill="none" xmlns="http://www.w3.org/2000/svg">
<path d="M9.96304 1.11659C9.81656 0.969805 9.64257 0.853355 9.45103 0.773901C9.25948 0.694447 9.05415 0.653549 8.84679 0.653549C8.63942 0.653549 8.43409 0.694447 8.24255 0.773901C8.05101 0.853355 7.87702 0.969805 7.73054 1.11659L0.463037 8.38409C0.316256 8.53057 0.199806 8.70456 0.120352 8.8961C0.0408978 9.08764 0 9.29297 0 9.50034C0 9.7077 0.0408978 9.91303 0.120352 10.1046C0.199806 10.2961 0.316256 10.4701 0.463037 10.6166L7.73054 17.8841C7.87712 18.0307 8.05115 18.147 8.24268 18.2263C8.4342 18.3056 8.63948 18.3465 8.84679 18.3465C9.05409 18.3465 9.25937 18.3056 9.4509 18.2263C9.64242 18.147 9.81645 18.0307 9.96304 17.8841C10.1096 17.7375 10.2259 17.5635 10.3052 17.3719C10.3846 17.1804 10.4254 16.9751 10.4254 16.7678C10.4254 16.5605 10.3846 16.3553 10.3052 16.1637C10.2259 15.9722 10.1096 15.7982 9.96304 15.6516L3.8197 9.49242L9.96304 3.34909C10.5805 2.73159 10.5647 1.71825 9.96304 1.11659Z" fill="white"/>
</svg>
