<svg width="36" height="36" viewBox="0 0 36 36" fill="none" xmlns="http://www.w3.org/2000/svg">
<path fill-rule="evenodd" clip-rule="evenodd" d="M24.5785 15.3103L17.4835 8.40893L10.3797 15.3103L6.05197 11.1059L13.147 4.20447L17.4835 0L21.8112 4.20447L28.9063 11.1059L24.5785 15.3103ZM31.6718 13.7971L13.1461 31.7952L17.4743 36L36 18.002L31.6718 13.7971ZM17.4865 13.787L6.05653 24.8914L10.3847 29.0963L21.8147 17.9919L17.4865 13.787ZM1.45887 15.3463C1.9992 14.9953 2.6346 14.8079 3.28459 14.8079C4.15423 14.8079 4.98839 15.1429 5.60412 15.7395C6.21986 16.3362 6.56692 17.1457 6.5692 17.9906C6.57091 18.6221 6.37972 19.2398 6.01984 19.7657C5.65996 20.2916 5.14758 20.7019 4.54754 20.9447C3.94752 21.1875 3.28682 21.2519 2.6491 21.1297C2.01138 21.0075 1.42532 20.7043 0.965092 20.2583C0.504867 19.8124 0.191179 19.2438 0.0637414 18.6246C-0.0636962 18.0054 0.000846537 17.3633 0.249195 16.7797C0.497545 16.1961 0.91853 15.6973 1.45887 15.3463Z" fill="#242429"/>
</svg>
