<svg width="56" height="56" viewBox="0 0 56 56" fill="none" xmlns="http://www.w3.org/2000/svg">
<rect width="56" height="56" rx="28" fill="white"/>
<path fill-rule="evenodd" clip-rule="evenodd" d="M34.5785 25.3103L27.4835 18.4089L20.3797 25.3103L16.052 21.1059L23.147 14.2045L27.4835 10L31.8112 14.2045L38.9063 21.1059L34.5785 25.3103ZM41.6718 23.7971L23.1461 41.7952L27.4743 46L46 28.002L41.6718 23.7971ZM27.4865 23.787L16.0565 34.8914L20.3847 39.0963L31.8147 27.9919L27.4865 23.787ZM11.4589 25.3463C11.9992 24.9953 12.6346 24.8079 13.2846 24.8079C14.1542 24.8079 14.9884 25.1429 15.6041 25.7395C16.2199 26.3362 16.5669 27.1457 16.5692 27.9906C16.5709 28.6221 16.3797 29.2398 16.0198 29.7657C15.66 30.2916 15.1476 30.7019 14.5475 30.9447C13.9475 31.1875 13.2868 31.2519 12.6491 31.1297C12.0114 31.0075 11.4253 30.7043 10.9651 30.2583C10.5049 29.8124 10.1912 29.2438 10.0637 28.6246C9.9363 28.0054 10.0008 27.3633 10.2492 26.7797C10.4975 26.1961 10.9185 25.6973 11.4589 25.3463Z" fill="#242429"/>
</svg>
