<svg width="19" height="18" viewBox="0 0 19 18" fill="none" xmlns="http://www.w3.org/2000/svg">
<path d="M18.5698 8.33052L1.17387 0.0792214C1.03753 0.0145362 0.88438 -0.0113817 0.732868 0.0045884C0.581356 0.0205585 0.437941 0.0777358 0.31989 0.169236C0.207151 0.258869 0.123004 0.376558 0.0769073 0.509072C0.0308105 0.641586 0.0245918 0.783671 0.0589504 0.919354L2.15437 8.24801H11.0975V9.74825H2.15437L0.0273215 17.0544C-0.00491919 17.1677 -0.00868267 17.2866 0.0163337 17.4016C0.0413502 17.5165 0.0944486 17.6243 0.171359 17.7162C0.24827 17.8081 0.346846 17.8817 0.459163 17.9309C0.571479 17.9801 0.694402 18.0036 0.818046 17.9996C0.941828 17.9988 1.06371 17.9706 1.17387 17.917L18.5698 9.66574C18.6993 9.60279 18.808 9.50715 18.8839 9.38936C18.9598 9.27157 19 9.13619 19 8.99813C19 8.86007 18.9598 8.7247 18.8839 8.6069C18.808 8.48911 18.6993 8.39347 18.5698 8.33052Z" fill="#242429"/>
</svg>
